<svg viewBox="0 0 24 24" width="100px" height="100px" fill="#FFF" id="advantages"><path class="ahst0" d="M20.68 11.18h-.63V6.21c0-.87-.68-1.58-1.51-1.58H5.43c-.83 0-1.5.71-1.5 1.58V17.8c0 .87.67 1.59 1.5 1.59h13.11c.83 0 1.51-.71 1.51-1.59v-2.83h.63c.14 0 .25-.11.25-.25v-3.28a.25.25 0 0 0-.25-.26zM4.43 6.21c0-.6.45-1.08 1-1.08h13.11c.55 0 1.01.49 1.01 1.08v1.83c-.27-.25-.62-.41-1.01-.41H5.43c-.59 0-1-.44-1-1.08v-.34zm15.12 11.58c0 .6-.45 1.09-1.01 1.09H5.43c-.55 0-1-.49-1-1.09V7.75c.26.24.61.37 1 .37h13.11c.55 0 1.01.49 1.01 1.09V11.18h-3.52c-.83 0-1.5.71-1.5 1.59v.61c0 .87.67 1.59 1.5 1.59h3.52v2.82zm.88-3.33h-4.4c-.55 0-1-.49-1-1.09v-.61c0-.6.45-1.09 1-1.09h4.4v2.79z"></path><path class="ahst1" d="M19.55 11.18h-3.52c-.83 0-1.5.71-1.5 1.59v.61c0 .87.67 1.59 1.5 1.59H20.68c.14 0 .25-.11.25-.25v-3.28c0-.14-.11-.25-.25-.25h-1.13zm.88.5v2.78h-4.4c-.55 0-1-.49-1-1.09v-.61c0-.6.45-1.09 1-1.09h4.4z" fill="#0055FFFF"></path></svg>