<svg viewBox="0 0 24 24" width="100px" height="100px" fill="#FFF" id="advantages"><path class="aust0" d="M12 6.05V5.8c-1.5 0-2.72 1.24-2.72 2.76 0 1.52 1.21 2.76 2.72 2.76 1.5 0 2.71-1.24 2.71-2.76 0-1.52-1.21-2.76-2.71-2.76v.5c1.21 0 2.21 1.01 2.21 2.26 0 1.25-1 2.26-2.21 2.26-1.22 0-2.22-1.01-2.22-2.26 0-1.25 1-2.25 2.22-2.26v-.25z" fill="#0055FFFF"></path><path class="aust1" d="M18.18 8.82c-.01-3.47-2.77-6.29-6.18-6.29-3.41 0-6.17 2.83-6.18 6.29.01 1.74 1.09 4.23 2.37 6.63 1.28 2.39 2.76 4.67 3.6 5.91.04.08.12.13.21.13s.17-.05.21-.12c.84-1.24 2.32-3.52 3.6-5.92 1.28-2.41 2.36-4.89 2.37-6.63zM12 20.77c-.85-1.28-2.2-3.38-3.37-5.57-1.27-2.36-2.32-4.85-2.31-6.39 0-1.6.64-3.05 1.67-4.1A5.607 5.607 0 0 1 12 3.01c1.56 0 2.98.65 4.01 1.7a5.84 5.84 0 0 1 1.67 4.1c.01 1.54-1.04 4.03-2.31 6.39-1.17 2.2-2.52 4.3-3.37 5.57z"></path></svg>