<svg viewBox="0 0 24 24" width="100px" height="100px" fill="#FFF" id="advantages"><path class="bgst0" d="M21.38 9.39c.05-.47-.08-.91-.38-1.24-.31-.35-.78-.55-1.37-.54H14.86c.37-.93 1.24-3.49.51-5.58-.23-.65-.82-1.05-1.53-1.03-.7.02-1.28.48-1.48 1.16C11.72 4.42 10.12 6.8 9 8.04v-.19c0-.41-.33-.74-.74-.74H4.2c-.41 0-.74.33-.74.74v11.68c0 .41.33.74.74.74h4.06c.41 0 .74-.33.74-.74v-.36c.74.54 1.82.66 2.66.66 1.04 0 2.23 0 3.47-.01l2.68-.01c.96 0 2.03-.46 2.26-1.48.19-.86-.06-1.39-.29-1.68.43-.32.69-.84.75-1.48.05-.53-.09-1.01-.39-1.37.48-.29.79-.84.84-1.55.04-.55-.1-1.05-.41-1.4.43-.32.74-.86.81-1.46zM8.26 19.77H4.2c-.13 0-.24-.11-.24-.24V7.85c0-.13.11-.24.24-.24h4.06c.13 0 .24.1.24.24v11.68c-.01.13-.11.24-.24.24zM20 11c.35.24.52.68.48 1.2-.05.67-.37 1.14-.86 1.27a.25.25 0 0 0-.18.19c-.02.09.02.19.1.25.35.26.53.69.48 1.21-.05.6-.32 1.05-.76 1.25-.08.04-.14.12-.14.2-.01.09.03.17.1.23.06.04.56.43.35 1.42-.16.75-1.01 1.09-1.77 1.09l-2.68.01c-1.23 0-2.42.01-3.46.01-1.24.01-2.2-.29-2.66-.82V8.76c1.15-1.12 3.11-3.86 3.85-6.46.16-.57.63-.79 1.01-.8.36-.01.85.16 1.04.69.83 2.36-.63 5.53-.64 5.56a.23.23 0 0 0 .02.24c.05.07.12.12.21.12H19.68c.4 0 .75.13.97.38.2.22.29.52.25.85-.06.56-.4 1.06-.83 1.23-.09.03-.15.11-.16.2-.03.09.01.18.09.23z" id="advantages" fill="#FFF"></path><path class="bgst1" d="M5.97 16.53a1.25 1.25 0 1 0 0 2.5 1.25 1.25 0 0 0 0-2.5zm0 2.01a.749.749 0 1 1-.002-1.498.749.749 0 0 1 .002 1.498z" fill="#0055FFFF"></path></svg>