<svg viewBox="0 0 24 24" height="100px" fill="#FFF" width="100px" id="advantages"><path id="advantages" class="aast0" d="M19.93 5.51L12.1 2.39c-.03-.01-.06 0-.09 0s-.06-.01-.09 0L4.07 5.51c-.09.04-.15.13-.15.24 0 6.96.97 13.61 8.03 15.11.02 0 .03.01.05.01.02 0 .03 0 .05-.01 7.06-1.5 8.03-8.15 8.03-15.11 0-.11-.06-.2-.15-.24zM12 20.36C6.65 19.19 4.44 15 4.42 5.92L12 2.89l7.58 3.02C19.56 15 17.35 19.19 12 20.36z"></path><path class="aast1" d="M15.7 7.47c.06-.12.22-.17.34-.1.12.06.17.22.1.34l-4.43 8.38c-.04.08-.12.13-.21.13h-.01c-.09 0-.17-.05-.22-.12l-2.9-4.92a.247.247 0 0 1 .09-.34c.12-.07.27-.03.34.09l2.67 4.53 4.23-7.99z" fill="#0055FFFF"></path></svg>