<svg viewBox="0 0 24 24" width="100px" height="100px" fill="#FFF" id="advantages"><path class="bnst0" d="M20.86 4.67H8.37c-.07 0-.13.03-.18.07L2.96 9.99a.22.22 0 0 0-.06.2h-.01v8.64c0 .14.11.25.25.25h10.2v2.75c0 .09.05.17.13.22.08.04.17.04.25 0l1.48-.87 1.48.87a.277.277 0 0 0 .25 0c.08-.04.13-.13.13-.22v-2.75h3.81c.14 0 .25-.11.25-.25V4.92c-.01-.13-.12-.25-.26-.25zm-12.72.84v4.42H3.73l4.41-4.42zm8.41 15.89l-1.23-.73a.284.284 0 0 0-.13-.04.22.22 0 0 0-.13.04l-1.23.73v-2.88c.42.17.88.26 1.35.26.48 0 .93-.1 1.35-.26v2.88zm-1.35-3.12c-1.77 0-3.22-1.44-3.22-3.22 0-1.77 1.44-3.21 3.22-3.21s3.21 1.44 3.21 3.21-1.44 3.22-3.21 3.22zm5.41.3h-3.55v-.32a3.69 3.69 0 0 0 1.86-3.2c0-2.05-1.67-3.71-3.71-3.71-2.05 0-3.72 1.67-3.72 3.71 0 1.37.75 2.56 1.86 3.2v.32H3.39v-8.16H8.4c.14 0 .25-.11.25-.25v-5H20.62v13.41z"></path><path class="bnst0" d="M15.2 13.16a1.9 1.9 0 1 0 0 3.8 1.9 1.9 0 1 0 0-3.8zm0 3.3c-.77 0-1.4-.63-1.4-1.4 0-.77.63-1.4 1.4-1.4.77 0 1.4.63 1.4 1.4 0 .77-.63 1.4-1.4 1.4z"></path><path class="bnst1" d="M15.2 13.16a1.9 1.9 0 1 0 0 3.8 1.9 1.9 0 1 0 0-3.8zm0 3.3c-.77 0-1.4-.63-1.4-1.4 0-.77.63-1.4 1.4-1.4.77 0 1.4.63 1.4 1.4 0 .77-.63 1.4-1.4 1.4z" fill="#0055FFFF"></path></svg>