<svg id="messenger-telegram" viewBox="0 0 25 25" width="50px" height="50px" fill="#0F3072"><path d="M22.291 3.861c-.282-.239-.737-.26-1.517-.022-.541.173-5.351 1.993-9.6 3.748A255.471 255.471 0 003.9 10.728c-.411.13-1.3.52-1.343 1.127-.022.39.3.737.932 1.018.671.347 3.639 1.343 4.268 1.538.216.737 1.495 5.048 1.56 5.308.064.284.234.532.476.694a.47.47 0 00.366.152.862.862 0 00.477-.173c.8-.65 2.188-2.1 2.578-2.513 1.712 1.343 3.575 2.838 3.748 3.011l.022.022c.337.318.773.51 1.235.542.133 0 .264-.023.39-.065a1.432 1.432 0 00.891-1.171c.016-.088.037-.175.065-.26a321.205 321.205 0 001.8-8.385c.455-2.318.823-4.593 1.04-5.806.043-.3.087-.541.108-.693.059-.433.103-.932-.222-1.213zM8.209 14.346L18.543 7.5c.021-.021.065-.043.086-.065.022 0 .022-.021.044-.021s.021 0 .043-.022a1.211 1.211 0 01-.087.13L16.008 9.97c-1.82 1.668-4.2 3.857-5.785 5.286v.022l-.023.022a.022.022 0 01-.006.015.02.02 0 01-.016.006c0 .022 0 .022-.022.044v.043c-.108 1.213-.3 3.293-.389 4.225v-.022c-.085-.26-1.298-4.398-1.558-5.265z"></path></svg>