<svg id="icon-vkontakte" viewBox="0 0 24 24" width="50px" height="50px" fill="#0F3072"><g data-name="Group 200"><path d="M11.789 17.864h1.194a1.055 1.055 0 00.545-.249.9.9 0 00.165-.528s-.026-1.639.718-1.885c.737-.229 1.679 1.584 2.674 2.285a1.84 1.84 0 001.329.407l2.674-.03s1.4-.094.734-1.208a8.869 8.869 0 00-1.987-2.346c-1.672-1.587-1.451-1.328.562-4.067 1.233-1.671 1.729-2.688 1.574-3.123-.149-.418-1.055-.308-1.055-.308l-3.011.025a.537.537 0 00-.377.071.784.784 0 00-.268.32 18.3 18.3 0 01-1.11 2.395c-1.336 2.318-1.875 2.443-2.1 2.291-.509-.33-.38-1.341-.38-2.068 0-2.234.333-3.177-.652-3.42a5.069 5.069 0 00-1.408-.145 6.487 6.487 0 00-2.489.266c-.351.172-.609.551-.447.573a1.327 1.327 0 01.89.452 3.011 3.011 0 01.294 1.391s.178 2.638-.41 2.972c-.407.218-.962-.243-2.159-2.342a20.024 20.024 0 01-1.067-2.267.9.9 0 00-.251-.337 1.227 1.227 0 00-.456-.2l-2.86.019s-.433.015-.588.2c-.142.171-.013.522-.013.522s2.234 5.33 4.766 8.022a6.814 6.814 0 004.969 2.3" data-name="Path 171"></path></g></svg>