<svg id="icon-youtube" viewBox="0 0 24 24" width="50px" height="50px" fill="#0F3072">
    <g data-name="Group 202">
        <path d="M21.8 7.736a4.8 4.8 0 00-.8-2.119 2.758 2.758 0 00-2-.9C16.2 4.5 12 4.5 12 4.5s-4.2 0-7 .217a2.758 2.758 0 00-2 .9 4.817 4.817 0 00-.8 2.119 34.369 34.369 0 00-.2 3.452v1.618a34.376 34.376 0 00.2 3.453 4.8 4.8 0 00.795 2.117 3.271 3.271 0 002.205.912c1.6.164 6.8.214 6.8.214s4.2-.007 7-.222a2.771 2.771 0 002-.9 4.808 4.808 0 00.8-2.117 34.377 34.377 0 00.2-3.453v-1.622a34.37 34.37 0 00-.2-3.452zM9.5 15.751v-7.5L15.754 12z" data-name="Path 172">
        </path>
    </g>
</svg>